<?xml version="1.0" encoding="utf-8"?>
<!-- Generator: Adobe Illustrator 25.2.0, SVG Export Plug-In . SVG Version: 6.00 Build 0)  -->
<svg version="1.1" id="Layer_1" xmlns="http://www.w3.org/2000/svg" xmlns:xlink="http://www.w3.org/1999/xlink" x="0px" y="0px"
	 viewBox="0 0 682.8 239.5" style="enable-background:new 0 0 682.8 239.5;" xml:space="preserve">
<style type="text/css">
	.st0{fill:none;stroke:#000000;stroke-miterlimit:10;}
	.st1{font-family:'ArialMT';}
	.st2{font-size:12px;}
	.st3{fill:none;stroke:#000000;stroke-miterlimit:10;stroke-dasharray:7,7;}
	.st4{fill:none;stroke:#000000;stroke-miterlimit:10;stroke-dasharray:6,6;}
	.st5{fill:none;stroke:#000000;stroke-width:0.75;stroke-miterlimit:10;}
	.st6{fill:none;stroke:#000000;stroke-width:0.75;stroke-miterlimit:10;stroke-dasharray:5.3333,5.3333;}
	.st7{fill:#FFFFFF;stroke:#000000;stroke-width:0.75;stroke-miterlimit:10;}
	.st8{fill:none;stroke:#000000;stroke-miterlimit:10;stroke-dasharray:6;}
</style>
<rect x="216.5" y="0.5" class="st0" width="144" height="45"/>
<text transform="matrix(1 0 0 1 258.8135 18.5)"><tspan x="0" y="0" class="st1 st2">«interface»</tspan><tspan x="0" y="14.4" class="st1 st2">Expression</tspan></text>
<rect x="432.5" y="99.5" class="st0" width="144" height="45"/>
<rect x="216.5" y="99.5" class="st0" width="144" height="45"/>
<rect x="216.5" y="0.5" class="st0" width="144" height="45"/>
<rect x="0.5" y="99.5" class="st0" width="144" height="45"/>
<rect x="329" y="194" class="st0" width="144" height="45"/>
<rect x="538.2" y="194" class="st0" width="144" height="45"/>
<text transform="matrix(1 0 0 1 474.8135 117.5)"><tspan x="0" y="0" class="st1 st2">«interface»</tspan><tspan x="6.7" y="14.4" class="st1 st2">Primitive</tspan></text>
<text transform="matrix(1 0 0 1 55.4961 126.5)" class="st1 st2">Factor</text>
<text transform="matrix(1 0 0 1 274.502 128.75)" class="st1 st2">Term</text>
<text transform="matrix(1 0 0 1 367.9854 221)" class="st1 st2">Constant</text>
<text transform="matrix(1 0 0 1 594.9863 221)" class="st1 st2">Variable</text>
<g>
	<g>
		<line class="st0" x1="72.5" y1="99.5" x2="72.5" y2="96.5"/>
		<line class="st3" x1="72.5" y1="89.5" x2="72.5" y2="79"/>
		<polyline class="st0" points="72.5,75.5 72.5,72.5 75.5,72.5 		"/>
		<line class="st4" x1="81.5" y1="72.5" x2="282.5" y2="72.5"/>
		<line class="st0" x1="285.5" y1="72.5" x2="288.5" y2="72.5"/>
	</g>
</g>
<g>
	<g>
		<line class="st5" x1="288.5" y1="99.5" x2="288.5" y2="96.5"/>
		<line class="st6" x1="288.5" y1="91.2" x2="288.5" y2="51.2"/>
		<line class="st5" x1="288.5" y1="48.5" x2="288.5" y2="45.5"/>
	</g>
</g>
<polygon class="st7" points="288.5,45.5 286.2,50 290.8,50 "/>
<polyline class="st0" points="504.5,99.5 504.5,72.5 320,72.5 320,45.5 "/>
<polyline class="st8" points="396.5,194 396.5,171.5 504.5,171.5 608,171.5 608,194 "/>
<line class="st8" x1="504.5" y1="144.5" x2="504.5" y2="171.5"/>
<polygon class="st7" points="320,45.5 317.8,50 322.2,50 "/>
<polygon class="st7" points="504.5,144.5 502.2,149 506.8,149 "/>
</svg>
